<svg xmlns="http://www.w3.org/2000/svg" width="1200" height="720" viewBox="0 0 1200 720" role="img" aria-label="Module 14: Macroevolution Evidence Map">
  <title>Module 14: Macroevolution Evidence Map</title>
  <desc>Concept map for Module 14: Macroevolution. Macroevolution explains speciation as reduced gene flow, reproductive isolation, and phylogenetic divergence.</desc>
  <style>
    .bg { fill: #ecf4f2; }
    .halo { fill: url(#wash); opacity: 0.92; }
    .frame { fill: #fbfffd; stroke: #172d35; stroke-width: 3; }
    .eyebrow { fill: #1f7a6d; font: 800 18px Georgia, serif; letter-spacing: 1.5px; text-transform: uppercase; }
    .title-text { fill: #172d35; font: 800 38px Georgia, serif; }
    .footer { fill: #4f6670; font: 16px Georgia, serif; }
    .claim-card, .side-card, .feedback-card, .prompt-card, .routine-card, .stage-card-bg { fill: #fbfffd; stroke: #172d35; stroke-width: 2.5; filter: url(#shadow); }
    .claim-kicker, .card-kicker { fill: #1f7a6d; font: 800 17px Georgia, serif; letter-spacing: 0.8px; text-transform: uppercase; }
    .claim-text { fill: #172d35; font: 700 25px Georgia, serif; }
    .node { fill: #fbfffd; stroke: #b55f24; stroke-width: 3; filter: url(#shadow); }
    .node-claim { stroke: #1f7a6d; }
    .node-mechanism { stroke: #b55f24; }
    .node-evidence { stroke: #567d46; }
    .node-vocabulary { stroke: #8067a9; }
    .node-application { stroke: #b26b2f; }
    .node-revision { stroke: #8a4351; }
    .cluster-pill { stroke: none; opacity: 0.92; }
    .cluster-claim { fill: #1f7a6d; }
    .cluster-mechanism { fill: #b55f24; }
    .cluster-evidence { fill: #6d9c57; }
    .cluster-vocabulary { fill: #9b83c6; }
    .cluster-application { fill: #d28942; }
    .cluster-revision { fill: #b85d70; }
    .cluster-label, .legend-text { fill: white; font: 800 11px Georgia, serif; letter-spacing: 1px; text-transform: uppercase; }
    .node-label { fill: #172d35; font: 800 20px Georgia, serif; }
    .node-detail { fill: #4f6670; font: 14px Georgia, serif; }
    .edge { stroke: #1f7a6d; stroke-width: 4; stroke-linecap: round; opacity: 0.72; marker-end: url(#arrowhead); }
    .edge-label { fill: #1f7a6d; font: 700 13px Georgia, serif; text-anchor: middle; paint-order: stroke; stroke: #ecf4f2; stroke-width: 4; }
    .stage-dot { fill: #b55f24; }
    .stage-num { fill: white; font: 900 18px Georgia, serif; }
    .stage-label { fill: #172d35; font: 800 18px Georgia, serif; }
    .stage-detail, .mini-text, .check-text { fill: #4f6670; font: 15px Georgia, serif; }
    .arrow { fill: none; stroke: #b55f24; stroke-width: 5; stroke-linecap: round; marker-end: url(#arrowhead); }
    .prompt-text { fill: #172d35; font: 700 17px Georgia, serif; }
    .routine-text { fill: #172d35; font: 700 16px Georgia, serif; }
    .retrieval-step-strip { fill: #fbfffd; stroke: #b55f24; stroke-width: 2; opacity: 0.96; }
    .palette-high-design { fill: #1f7a6d; }
    @media print { .claim-card, .side-card, .feedback-card, .prompt-card, .routine-card, .node, .stage-card-bg { filter: none; } }
    </style>
  <defs>
    <linearGradient id="wash" x1="0" x2="1" y1="0" y2="1">
      <stop offset="0" stop-color="#fbfffd" />
      <stop offset="1" stop-color="#b55f24" stop-opacity="0.18" />
    </linearGradient>
    <filter id="shadow" x="-20%" y="-20%" width="140%" height="140%">
      <feDropShadow dx="0" dy="8" stdDeviation="7" flood-color="#172d35" flood-opacity="0.16"/>
    </filter>
    <marker id="arrowhead" markerWidth="12" markerHeight="8" refX="11" refY="4" orient="auto">
      <polygon points="0 0, 12 4, 0 8" fill="#b55f24" />
    </marker>
    </defs>
  <rect class="bg" width="1200" height="720" />
  <path class="halo" d="M80 100 C260 20 458 88 610 62 C848 20 1052 74 1148 214 L1148 656 L52 656 L52 178 C64 142 70 118 80 100 Z" />
  <text x="70" y="72" class="eyebrow">Module 14 / Concept Map</text>
  <text x="70" y="118" class="title-text">Module 14: Macroevolution Evidence Map</text>
  <g class="concept-legend"><g class="legend-item"><rect x="72.0" y="146.0" width="148" height="28" rx="14" class="cluster-pill cluster-claim" /><text x="146.0" y="165.0" class="legend-text" text-anchor="middle">Claim</text></g><g class="legend-item"><rect x="236.0" y="146.0" width="148" height="28" rx="14" class="cluster-pill cluster-mechanism" /><text x="310.0" y="165.0" class="legend-text" text-anchor="middle">Mechanism</text></g><g class="legend-item"><rect x="400.0" y="146.0" width="148" height="28" rx="14" class="cluster-pill cluster-evidence" /><text x="474.0" y="165.0" class="legend-text" text-anchor="middle">Evidence</text></g><g class="legend-item"><rect x="564.0" y="146.0" width="148" height="28" rx="14" class="cluster-pill cluster-application" /><text x="638.0" y="165.0" class="legend-text" text-anchor="middle">Application</text></g><g class="legend-item"><rect x="728.0" y="146.0" width="148" height="28" rx="14" class="cluster-pill cluster-revision" /><text x="802.0" y="165.0" class="legend-text" text-anchor="middle">Revision</text></g><g class="legend-item"><rect x="892.0" y="146.0" width="148" height="28" rx="14" class="cluster-pill cluster-vocabulary" /><text x="966.0" y="165.0" class="legend-text" text-anchor="middle">Vocabulary</text></g></g>
  <rect x="330" y="282" width="540" height="166" rx="34" class="claim-card" />
  <text x="600" y="322" class="claim-kicker">Central claim</text>
  <text x="600.0" y="366.0" class="claim-text" text-anchor="middle"><tspan x="600.0" dy="0">Macroevolution explains speciation as reduced</tspan><tspan x="600.0" dy="25">gene flow, reproductive isolation, and</tspan><tspan x="600.0" dy="25">phylogenetic divergence.</tspan></text>
  <path d="M 600.0 175.0 L 911.8 270.0" class="edge" /><text x="755.9" y="222.5" class="edge-label">requires</text><path d="M 911.8 270.0 L 911.8 460.0" class="edge" /><text x="911.8" y="365.0" class="edge-label">tested by</text><path d="M 911.8 460.0 L 600.0 555.0" class="edge" /><text x="755.9" y="507.5" class="edge-label">uses</text><path d="M 600.0 555.0 L 288.2 460.0" class="edge" /><text x="444.1" y="507.5" class="edge-label">supports</text><path d="M 288.2 460.0 L 288.2 270.0" class="edge" /><text x="288.2" y="365.0" class="edge-label">rules out</text><path d="M 288.2 270.0 L 600.0 175.0" class="edge" /><text x="444.1" y="222.5" class="edge-label">revises</text>
  <g class="node-group"><rect x="476.0" y="123.0" width="248" height="104" rx="22" class="node node-claim" /><rect x="520.0" y="130.0" width="160" height="22" rx="11" class="cluster-pill cluster-claim" /><text x="600.0" y="146.0" class="cluster-label" text-anchor="middle">Claim</text><text x="600.0" y="171.0" class="node-label" text-anchor="middle"><tspan x="600.0" dy="0">Species concepts</tspan></text><text x="600.0" y="205.0" class="node-detail" text-anchor="middle"><tspan x="600.0" dy="0">Species concepts define</tspan><tspan x="600.0" dy="13">lineages using reproductive...</tspan></text></g><g class="node-group"><rect x="787.8" y="218.0" width="248" height="104" rx="22" class="node node-mechanism" /><rect x="831.8" y="225.0" width="160" height="22" rx="11" class="cluster-pill cluster-mechanism" /><text x="911.8" y="241.0" class="cluster-label" text-anchor="middle">Mechanism</text><text x="911.8" y="266.0" class="node-label" text-anchor="middle"><tspan x="911.8" dy="0">Reproductive</tspan><tspan x="911.8" dy="18">isolation</tspan></text><text x="911.8" y="300.0" class="node-detail" text-anchor="middle"><tspan x="911.8" dy="0">Reproductive isolation</tspan><tspan x="911.8" dy="13">reduces gene flow between...</tspan></text></g><g class="node-group"><rect x="787.8" y="408.0" width="248" height="104" rx="22" class="node node-evidence" /><rect x="831.8" y="415.0" width="160" height="22" rx="11" class="cluster-pill cluster-evidence" /><text x="911.8" y="431.0" class="cluster-label" text-anchor="middle">Evidence</text><text x="911.8" y="456.0" class="node-label" text-anchor="middle"><tspan x="911.8" dy="0">Lab evidence</tspan></text><text x="911.8" y="490.0" class="node-detail" text-anchor="middle"><tspan x="911.8" dy="0">lab-14_macroevolution.md</tspan><tspan x="911.8" dy="13">focuses students on...</tspan></text></g><g class="node-group"><rect x="476.0" y="503.0" width="248" height="104" rx="22" class="node node-vocabulary" /><rect x="520.0" y="510.0" width="160" height="22" rx="11" class="cluster-pill cluster-vocabulary" /><text x="600.0" y="526.0" class="cluster-label" text-anchor="middle">Vocabulary</text><text x="600.0" y="551.0" class="node-label" text-anchor="middle"><tspan x="600.0" dy="0">Species</tspan></text><text x="600.0" y="585.0" class="node-detail" text-anchor="middle"><tspan x="600.0" dy="0">Lineage or group identified</tspan><tspan x="600.0" dy="13">by a species concept.</tspan></text></g><g class="node-group"><rect x="164.2" y="408.0" width="248" height="104" rx="22" class="node node-application" /><rect x="208.2" y="415.0" width="160" height="22" rx="11" class="cluster-pill cluster-application" /><text x="288.2" y="431.0" class="cluster-label" text-anchor="middle">Application</text><text x="288.2" y="456.0" class="node-label" text-anchor="middle"><tspan x="288.2" dy="0">Speciation patterns</tspan><tspan x="288.2" dy="18">and phylogeny</tspan></text><text x="288.2" y="490.0" class="node-detail" text-anchor="middle"><tspan x="288.2" dy="0">Use barriers and phylogenies</tspan><tspan x="288.2" dy="13">to support divergence...</tspan></text></g><g class="node-group"><rect x="164.2" y="218.0" width="248" height="104" rx="22" class="node node-revision" /><rect x="208.2" y="225.0" width="160" height="22" rx="11" class="cluster-pill cluster-revision" /><text x="288.2" y="241.0" class="cluster-label" text-anchor="middle">Revision</text><text x="288.2" y="266.0" class="node-label" text-anchor="middle"><tspan x="288.2" dy="0">Misconception check</tspan></text><text x="288.2" y="300.0" class="node-detail" text-anchor="middle"><tspan x="288.2" dy="0">Species boundaries are</tspan><tspan x="288.2" dy="13">evidence-based models, not...</tspan></text></g>
  <text x="70" y="672" class="footer">Linked lab: lab-14_macroevolution.md / Generated from explicit module.toml visual schema</text>
</svg>
