<svg xmlns="http://www.w3.org/2000/svg" width="1200" height="720" viewBox="0 0 1200 720" role="img" aria-label="Module 08: Cellular Genetics Evidence Map">
  <title>Module 08: Cellular Genetics Evidence Map</title>
  <desc>Concept map for Module 8: Cellular Genetics. Cellular Genetics explains chromosome behavior across mitosis, meiosis, variation, and errors.</desc>
  <style>
    .bg { fill: #f4f1e6; }
    .halo { fill: url(#wash); opacity: 0.92; }
    .frame { fill: #fffdf5; stroke: #2c2517; stroke-width: 3; }
    .eyebrow { fill: #9b3f2f; font: 800 18px Georgia, serif; letter-spacing: 1.5px; text-transform: uppercase; }
    .title-text { fill: #2c2517; font: 800 38px Georgia, serif; }
    .footer { fill: #6a614d; font: 16px Georgia, serif; }
    .claim-card, .side-card, .feedback-card, .prompt-card { fill: #fffdf5; stroke: #2c2517; stroke-width: 2.5; filter: url(#shadow); }
    .claim-kicker, .card-kicker { fill: #9b3f2f; font: 800 17px Georgia, serif; letter-spacing: 0.8px; text-transform: uppercase; }
    .claim-text { fill: #2c2517; font: 700 25px Georgia, serif; }
    .node { fill: #fffdf5; stroke: #2f6f4e; stroke-width: 3; filter: url(#shadow); }
    .node-label { fill: #2c2517; font: 800 20px Georgia, serif; }
    .node-detail { fill: #6a614d; font: 14px Georgia, serif; }
    .edge { stroke: #9b3f2f; stroke-width: 4; stroke-linecap: round; opacity: 0.72; }
    .edge-label { fill: #9b3f2f; font: 700 13px Georgia, serif; text-anchor: middle; paint-order: stroke; stroke: #f4f1e6; stroke-width: 4; }
    .stage { fill: #fffdf5; stroke: #9b3f2f; stroke-width: 5; filter: url(#shadow); }
    .stage-num { fill: #2f6f4e; font: 900 18px Georgia, serif; }
    .stage-label { fill: #2c2517; font: 800 18px Georgia, serif; }
    .stage-detail, .mini-text, .check-text { fill: #6a614d; font: 15px Georgia, serif; }
    .arrow { fill: none; stroke: #2f6f4e; stroke-width: 5; stroke-linecap: round; marker-end: url(#arrowhead); }
    .prompt-text { fill: #2c2517; font: 700 17px Georgia, serif; }
    .palette-high-design { fill: #9b3f2f; }
    @media print { .claim-card, .side-card, .feedback-card, .prompt-card, .node, .stage { filter: none; } }
    </style>
  <defs>
    <linearGradient id="wash" x1="0" x2="1" y1="0" y2="1">
      <stop offset="0" stop-color="#fffdf5" />
      <stop offset="1" stop-color="#2f6f4e" stop-opacity="0.18" />
    </linearGradient>
    <filter id="shadow" x="-20%" y="-20%" width="140%" height="140%">
      <feDropShadow dx="0" dy="8" stdDeviation="7" flood-color="#2c2517" flood-opacity="0.16"/>
    </filter>
    <marker id="arrowhead" markerWidth="12" markerHeight="8" refX="11" refY="4" orient="auto">
      <polygon points="0 0, 12 4, 0 8" fill="#2f6f4e" />
    </marker>
    </defs>
  <rect class="bg" width="1200" height="720" />
  <path class="halo" d="M80 100 C260 20 458 88 610 62 C848 20 1052 74 1148 214 L1148 656 L52 656 L52 178 C64 142 70 118 80 100 Z" />
  <text x="70" y="72" class="eyebrow">Module 08 / Concept Map</text>
  <text x="70" y="118" class="title-text">Module 08: Cellular Genetics Evidence Map</text>
  <rect x="330" y="282" width="540" height="166" rx="34" class="claim-card" />
  <text x="600" y="322" class="claim-kicker">Central claim</text>
  <text x="600.0" y="366.0" class="claim-text" text-anchor="middle"><tspan x="600.0" dy="0">Cellular Genetics explains chromosome behavior</tspan><tspan x="600.0" dy="25">across mitosis, meiosis, variation, and errors.</tspan></text>
  <path d="M 600.0 175.0 L 911.8 270.0" class="edge" /><text x="755.9" y="222.5" class="edge-label">requires</text><path d="M 911.8 270.0 L 911.8 460.0" class="edge" /><text x="911.8" y="365.0" class="edge-label">tested by</text><path d="M 911.8 460.0 L 600.0 555.0" class="edge" /><text x="755.9" y="507.5" class="edge-label">uses</text><path d="M 600.0 555.0 L 288.2 460.0" class="edge" /><text x="444.1" y="507.5" class="edge-label">supports</text><path d="M 288.2 460.0 L 288.2 270.0" class="edge" /><text x="288.2" y="365.0" class="edge-label">rules out</text><path d="M 288.2 270.0 L 600.0 175.0" class="edge" /><text x="444.1" y="222.5" class="edge-label">revises</text>
  <g class="node-group"><rect x="480.0" y="127.0" width="240" height="96" rx="22" class="node" /><text x="600.0" y="163.0" class="node-label" text-anchor="middle"><tspan x="600.0" dy="0">Chromosomes and cell</tspan><tspan x="600.0" dy="20">cycle</tspan></text><text x="600.0" y="197.0" class="node-detail" text-anchor="middle"><tspan x="600.0" dy="0">Chromosomes organize DNA so</tspan><tspan x="600.0" dy="14">cells can divide...</tspan></text></g><g class="node-group"><rect x="791.8" y="222.0" width="240" height="96" rx="22" class="node" /><text x="911.8" y="258.0" class="node-label" text-anchor="middle"><tspan x="911.8" dy="0">Mitosis for growth</tspan><tspan x="911.8" dy="20">and repair</tspan></text><text x="911.8" y="292.0" class="node-detail" text-anchor="middle"><tspan x="911.8" dy="0">Mitosis produces</tspan><tspan x="911.8" dy="14">genetically identical...</tspan></text></g><g class="node-group"><rect x="791.8" y="412.0" width="240" height="96" rx="22" class="node" /><text x="911.8" y="448.0" class="node-label" text-anchor="middle"><tspan x="911.8" dy="0">Lab evidence</tspan></text><text x="911.8" y="482.0" class="node-detail" text-anchor="middle"><tspan x="911.8" dy="0">lab-08_cellular-genetics.md</tspan><tspan x="911.8" dy="14">focuses students on...</tspan></text></g><g class="node-group"><rect x="480.0" y="507.0" width="240" height="96" rx="22" class="node" /><text x="600.0" y="543.0" class="node-label" text-anchor="middle"><tspan x="600.0" dy="0">Chromosome</tspan></text><text x="600.0" y="577.0" class="node-detail" text-anchor="middle"><tspan x="600.0" dy="0">DNA-protein structure</tspan><tspan x="600.0" dy="14">carrying genes.</tspan></text></g><g class="node-group"><rect x="168.2" y="412.0" width="240" height="96" rx="22" class="node" /><text x="288.2" y="448.0" class="node-label" text-anchor="middle"><tspan x="288.2" dy="0">Errors and genetic</tspan><tspan x="288.2" dy="20">consequences</tspan></text><text x="288.2" y="482.0" class="node-detail" text-anchor="middle"><tspan x="288.2" dy="0">Use chromosome movement to</tspan><tspan x="288.2" dy="14">explain inheritance...</tspan></text></g><g class="node-group"><rect x="168.2" y="222.0" width="240" height="96" rx="22" class="node" /><text x="288.2" y="258.0" class="node-label" text-anchor="middle"><tspan x="288.2" dy="0">Misconception check</tspan></text><text x="288.2" y="292.0" class="node-detail" text-anchor="middle"><tspan x="288.2" dy="0">Mitosis and meiosis are not</tspan><tspan x="288.2" dy="14">interchangeable...</tspan></text></g>
  <text x="70" y="672" class="footer">Linked lab: lab-08_cellular-genetics.md / Generated from explicit module.toml visual schema</text>
</svg>
